<svg viewBox="0 0 39 39" width="37.975" height="37.975" xmlns="http://www.w3.org/2000/svg" xmlns:serif="http://www.serif.com/" fill-rule="evenodd" clip-rule="evenodd" stroke-linejoin="round" stroke-miterlimit="1.414"><g serif:id="STORE ICON"><path d="M38.218 8.583A7.598 7.598 0 0 0 30.623.988H7.838A7.598 7.598 0 0 0 .243 8.583v22.784a7.598 7.598 0 0 0 7.595 7.595h22.785a7.598 7.598 0 0 0 7.595-7.595V8.583z" fill="#48355b"/><path d="M18.578 13.326v6.214h8.538v-7.45l-8.538 1.236zm0 13.298l8.538 1.236v-7.45h-8.538v6.214zm-7.233-7.084h6.363v-6.088l-6.363.922v5.166zm0 6.036l6.363.922V20.41h-6.363v5.166z" fill="#fff" fill-rule="nonzero"/></g></svg>
