<svg viewBox="0 0 39 39" width="37.975" height="37.975" xmlns="http://www.w3.org/2000/svg" xmlns:serif="http://www.serif.com/" fill-rule="evenodd" clip-rule="evenodd" stroke-linejoin="round" stroke-miterlimit="1.414"><g serif:id="STORE ICON"><path d="M38.218 8.105A7.598 7.598 0 0 0 30.623.51H7.838A7.598 7.598 0 0 0 .243 8.105V30.89a7.599 7.599 0 0 0 7.595 7.595h22.785a7.599 7.599 0 0 0 7.595-7.595V8.105z" fill="#48355b"/><g fill="#fff" fill-rule="nonzero"><path d="M13.261 8.447a2.233 2.233 0 0 0-1.73-.299L21.823 18.44l3.336-3.336-11.898-6.657zM10.253 8.984c-.287.382-.452.85-.452 1.346v18.334c0 .495.165.964.452 1.346l10.513-10.513L10.253 8.984zM29.512 17.54l-2.998-1.677-3.634 3.634 3.635 3.634 2.998-1.677a2.218 2.218 0 0 0 1.147-1.957c0-.823-.429-1.555-1.148-1.957zM21.823 20.554L11.531 30.846a2.242 2.242 0 0 0 1.73-.299l11.898-6.657-3.336-3.336z"/></g></g></svg>
