<svg viewBox="0 0 18 28" width="17" height="28"  xmlns="http://www.w3.org/2000/svg" fill-rule="evenodd" clip-rule="evenodd" stroke-linejoin="round" stroke-miterlimit="1.414"><path d="M1.739 4.872l9.169 9.168-9.198 9.199.003.001a2.779 2.779 0 0 0-.791 1.941 2.789 2.789 0 0 0 2.789 2.789c.756 0 1.438-.303 1.94-.791l.003.003 11.155-11.155-.003-.003a2.774 2.774 0 0 0 .849-1.997c0-.846-.384-1.595-.979-2.106L5.683.928 5.68.932A2.772 2.772 0 0 0 3.682.083 2.789 2.789 0 0 0 .893 2.872c0 .784.327 1.492.849 1.997l-.003.003z" fill="#48355b"/></svg>
