<svg xmlns="http://www.w3.org/2000/svg" viewBox="0 0 1367 175" width="1366" height="174" fill-rule="evenodd" clip-rule="evenodd" stroke-linejoin="round" stroke-miterlimit="1.414"><path d="M1202.54 97.021C1224.902 40.795 1293.656 0 1370.396 0h.03v175H-3.426V0h.057c77.49 0 143.229 40.73 165.802 96.963a140.448 140.448 0 0 1 25.76-2.372c12.289 0 28.38 1.829 39.738 4.812 23.786-18.706 53.777-29.868 86.355-29.868 46.17 0 87.145 22.42 112.622 56.957 1.683-.072 3.375-.109 5.076-.109 22.548 0 43.625 6.355 61.533 17.37 20.813-18.582 48.264-29.882 78.332-29.882 29.802 0 57.031 11.1 77.776 29.388 21.19-31.111 56.898-51.556 97.343-51.556 35.412 0 67.192 15.672 88.776 40.453 20.291-11.577 44.361-18.285 70.163-18.285 17.487 0 34.18 3.081 49.44 8.672 23.454-31.925 63.755-53.008 109.498-53.008 32.23 0 61.759 10.467 84.597 27.819a140.285 140.285 0 0 1 27.412-2.69c8.773 0 17.359.809 25.685 2.357z" fill="#fff"/></svg>