<svg xmlns:serif="http://www.serif.com/" xmlns="http://www.w3.org/2000/svg" viewBox="0 0 1303 386" width="1737" height="515" fill-rule="evenodd" clip-rule="evenodd" stroke-linejoin="round" stroke-miterlimit="1.414"><path d="M1173.757 88.945C1175.444 39.652 1231.754 0 1302.047 0l.953.002v248.873H0V.002L.961 0C71.035 0 127.21 39.407 129.233 88.487c31.086 9.378 56.215 26.224 70.426 47.174 32.32 4.98 60.402 17.565 79.94 34.832a276.943 276.943 0 0 1 28.871-1.496c73.1 0 134.995 28.238 155.41 67.036 14.402-4.993 30.704-7.809 47.963-7.809 18.73 0 36.329 3.316 51.597 9.13 18.988-19.323 51.357-32.059 88.063-32.059 25.453 0 48.82 6.124 67.086 16.322 19.25-17.989 50.448-29.691 85.634-29.691 29.109 0 55.488 8.009 74.631 20.961 19.76-25.787 65.884-43.89 119.573-43.89 6.052 0 12.007.23 17.839.675 14.526-8.664 31.718-15.318 50.627-19.32 16.666-31.532 57.24-55.362 106.863-61.407z" fill="#e0e0e0"/><path d="M1146.18 200.692c21.326-42.17 83.606-72.712 156.793-72.712l.027.003v207.77L0 334.448V128.106h.062c73.903 0 136.6 30.547 158.128 72.723a169.178 169.178 0 0 1 24.567-1.779c11.72 0 23.09 1.191 33.922 3.428 22.686-14.029 51.289-22.4 82.358-22.4 44.033 0 83.112 16.814 107.41 42.717 1.605-.054 3.219-.081 4.841-.081 21.504 0 41.605 4.765 58.685 13.026 19.85-13.936 46.03-22.411 74.706-22.411 28.422 0 54.391 8.325 74.176 22.041 20.21-23.333 54.265-38.667 92.838-38.667 33.773 0 64.082 11.755 84.666 30.34 19.353-8.683 42.309-13.714 66.916-13.714 16.678 0 32.598 2.311 47.152 6.505 22.368-23.944 60.804-39.756 104.43-39.756 30.738 0 58.9 7.85 80.682 20.864a169.013 169.013 0 0 1 26.143-2.018c8.367 0 16.555.607 24.497 1.768z" fill="#f4f4f4"/><path serif:id="clouds-1" d="M1146.18 285.696c21.326-42.17 83.389-72.712 156.576-72.712l.244 173.178H0V213.11l.076.001c73.903 0 136.523 30.547 158.052 72.722a169.317 169.317 0 0 1 24.567-1.779c11.72 0 23.154 1.192 33.987 3.429 22.685-14.029 51.288-22.401 82.357-22.401 44.033 0 83.112 16.815 107.41 42.717 1.605-.054 3.219-.081 4.841-.081 21.504 0 41.605 4.766 58.685 13.027 19.85-13.936 46.029-22.411 74.706-22.411 28.422 0 54.391 8.325 74.176 22.041 20.209-23.333 54.264-38.667 92.837-38.667 33.773 0 64.082 11.754 84.666 30.34 19.353-8.683 42.309-13.714 66.916-13.714 16.678 0 32.598 2.311 47.152 6.504 22.368-23.943 60.804-39.756 104.429-39.756 30.739 0 58.901 7.85 80.682 20.864a169.011 169.011 0 0 1 26.143-2.018c8.367 0 16.555.607 24.497 1.769z" fill="#fff"/></svg>