<svg viewBox="0 0 221 15" width="220" height="14.863" xmlns="http://www.w3.org/2000/svg" fill-rule="evenodd" clip-rule="evenodd" stroke-linejoin="round" stroke-miterlimit="1.414"><path d="M110.116.154l1.125-.007.004.32c.261 8.432 10.368 15.131 18.503 10.787 3.368-1.798 5.808-5.178 6.478-8.979l.271-1.63h1.72c1.117 6.73 6.677 12.487 13.453 12.067 5.563-.344 10.607-4.669 11.623-10.437l.27-1.63h1.721c1.117 6.73 6.677 12.487 13.453 12.067 5.564-.344 10.607-4.669 11.623-10.437l.27-1.63h1.721c1.121 6.751 6.647 12.575 13.607 12.057 6.241-.465 11.608-6.119 11.649-12.555l2.25.014c-.044 7.048-5.628 13.616-12.643 14.663-6.311.942-12.989-2.603-15.716-8.583 0 0-1.598 3.202-3.86 5.151-6.887 5.933-19.126 3.796-23.207-5.151 0 0-1.598 3.202-3.86 5.151-6.892 5.938-19.126 3.796-23.207-5.151 0 0-1.396 2.832-3.316 4.658-5.56 5.291-15.391 5.202-20.842-.388a14.79 14.79 0 0 1-3.133-4.841c-1.998 4.685-6.355 8.39-11.474 9.154-6.312.942-12.99-2.603-15.717-8.583 0 0-1.598 3.202-3.86 5.151-6.893 5.938-19.127 3.796-23.207-5.151 0 0-1.598 3.202-3.86 5.151-6.892 5.938-19.127 3.796-23.207-5.151 0 0-1.351 2.789-3.316 4.658-5.56 5.291-15.39 5.202-20.842-.388C1.927 7.781.399 4.018.375.161l2.25-.014c.001.16.001.16.004.319C2.89 8.9 12.997 15.598 21.133 11.254c3.365-1.797 5.808-5.178 6.477-8.979l.271-1.63h1.72c1.118 6.729 6.677 12.487 13.453 12.067 5.573-.345 10.623-4.758 11.623-10.437l.271-1.63h1.72c1.117 6.729 6.677 12.487 13.453 12.067 5.584-.346 10.623-4.758 11.623-10.437l.271-1.63h1.72c1.121 6.751 6.647 12.575 13.608 12.057 6.24-.465 11.608-6.119 11.648-12.555l1.125.007z" fill="#48355b"/></svg>
